<svg id="Layer_1" height="512" viewBox="0 0 512 512" width="512" xmlns="http://www.w3.org/2000/svg" data-name="Layer 1"><path d="m199.32 139.6a181.13 181.13 0 0 1 83.75-2.18v.01a180.665 180.665 0 0 1 142.89 176.84c0 99.81-80.69 180.73-180.21 180.73s-180.21-80.92-180.21-180.73a180.7 180.7 0 0 1 133.78-174.67z" fill="#7d8696"/><path d="m266.07 101.93h-49.75a17.022 17.022 0 0 0 -17 17.05v20.62a181.13 181.13 0 0 1 83.75-2.18v-18.44a17.022 17.022 0 0 0 -17-17.05z" fill="#9b7daa"/><path d="m255.23 86.25v15.68h-26.47v-24.68a13.235 13.235 0 1 1 26.47 0z" fill="#775b84"/><path d="m245.75 157.88a156.166 156.166 0 0 1 155.94 155.98v.41a155.94 155.94 0 1 1 -311.88 0v-.41a156.166 156.166 0 0 1 155.94-155.98z" fill="#88ced8"/><circle cx="246" cy="316.84" fill="#bad79d" r="120.84"/><path d="m155.16 316.84a120.859 120.859 0 0 1 105.84-119.914 122.128 122.128 0 0 0 -15-.926 120.84 120.84 0 0 0 0 241.68 122.128 122.128 0 0 0 15-.926 120.859 120.859 0 0 1 -105.84-119.914z" fill="#9eb286"/><path d="m292.43 192.37-66.94 87.18a7 7 0 0 0 2.94 10.77l.83.32a16.676 16.676 0 0 0 11.3.27 21.124 21.124 0 0 1 24.87 9.94 16.74 16.74 0 0 0 8.38 7.61l.94.38a6.977 6.977 0 0 0 9.51-5.7l12.6-108.96a2.482 2.482 0 0 0 -4.43-1.81z" fill="#eb7288"/><path d="m263.07 338.23-.83-.33a16.676 16.676 0 0 0 -11.3-.27 21.111 21.111 0 0 1 -24.87-9.94 16.74 16.74 0 0 0 -8.38-7.61l-.94-.38a6.977 6.977 0 0 0 -9.51 5.7l-12.61 108.96a2.487 2.487 0 0 0 4.44 1.81l66.94-87.18a7 7 0 0 0 -2.94-10.76z" fill="#eb7288"/><path d="m250.71 302.43a12.875 12.875 0 1 1 -16.69 7.19 12.887 12.887 0 0 1 16.69-7.19z" fill="#9b7daa"/><g fill="#284268"><path d="m189.168 429.4-.494 4.27a8.41 8.41 0 0 0 5.246 8.847 8.54 8.54 0 0 0 3.225.635 8.4 8.4 0 0 0 6.685-3.332l2.543-3.312a126.4 126.4 0 0 0 39.627 6.332c69.906 0 126.778-56.9 126.778-126.84a127.158 127.158 0 0 0 -70.8-113.827l.844-7.3a8.485 8.485 0 0 0 -15.156-6.152l-4.584 5.972a126.62 126.62 0 0 0 -37.082-5.533c-69.906 0-126.778 56.9-126.778 126.84a127.316 127.316 0 0 0 69.946 113.4zm12.886-6.971 11.146-96.343a.963.963 0 0 1 .477-.743.933.933 0 0 1 .484-.141.969.969 0 0 1 .363.074l.938.375a10.727 10.727 0 0 1 5.36 4.933 27.1 27.1 0 0 0 31.936 12.764 10.673 10.673 0 0 1 7.259.119l.825.33a.942.942 0 0 1 .583.658.976.976 0 0 1 -.171.882zm37.546-110.588a6.813 6.813 0 0 1 8.879-3.841 6.9 6.9 0 0 1 3.825 8.946 6.83 6.83 0 0 1 -8.882 3.839 6.9 6.9 0 0 1 -3.822-8.944zm60.907-96.928a114.844 114.844 0 0 1 -86.327 211.432l56.588-73.7a13.005 13.005 0 0 0 -5.475-19.991l-.824-.329a22.073 22.073 0 0 0 -9.239-1.506 18.727 18.727 0 0 0 8.226-9.438 18.819 18.819 0 0 0 .485-12.54 22.1 22.1 0 0 0 7.643 5.191l.938.375a12.974 12.974 0 0 0 17.7-10.574zm-11.062-8.8-11.145 96.342a.966.966 0 0 1 -.476.743.923.923 0 0 1 -.848.067l-.937-.375a10.733 10.733 0 0 1 -5.36-4.934 27.107 27.107 0 0 0 -31.936-12.764 10.661 10.661 0 0 1 -7.259-.119l-.825-.329a.946.946 0 0 1 -.583-.659.976.976 0 0 1 .171-.881zm-43.445-4.953a114.867 114.867 0 0 1 29.22 3.769l-54.49 70.971a13 13 0 0 0 5.475 19.991l.824.33a22.217 22.217 0 0 0 10.28 1.422 18.832 18.832 0 0 0 -9.271 22.571 22.208 22.208 0 0 0 -8.124-5.7l-.938-.374a12.975 12.975 0 0 0 -17.7 10.573l-10.629 91.918a114.865 114.865 0 0 1 55.353-215.471z"/><path d="m213.783 229.337a6.018 6.018 0 0 0 1.933-.321c2.511-.855 5.085-1.61 7.654-2.245a6 6 0 1 0 -2.88-11.649c-2.9.717-5.806 1.569-8.64 2.533a6 6 0 0 0 1.933 11.682z"/><path d="m200.94 235.527a6 6 0 0 0 -5.774-10.52 103.938 103.938 0 0 0 -54.166 90.993 6 6 0 0 0 12 0 91.94 91.94 0 0 1 47.94-80.473z"/><path d="m245.749 476.66c89.293 0 161.937-72.848 161.937-162.389s-72.644-162.39-161.937-162.39-161.937 72.848-161.937 162.39 72.645 162.389 161.937 162.389zm-136.408-168.8h-13.383a150.053 150.053 0 0 1 39.865-95.747l9.222 9.249a6 6 0 0 0 8.5-8.473l-9.233-9.26a149.129 149.129 0 0 1 95.439-39.616v13.043a6 6 0 0 0 12 0v-13.044a149.129 149.129 0 0 1 95.439 39.616l-9.233 9.26a6 6 0 0 0 8.5 8.473l9.222-9.249a150.06 150.06 0 0 1 39.866 95.747h-13.388a6 6 0 0 0 0 12h13.415a150.049 150.049 0 0 1 -39.502 96.141l-9.617-9.645a6 6 0 1 0 -8.5 8.473l9.657 9.685a149.149 149.149 0 0 1 -95.864 40.013v-13.863a6 6 0 0 0 -12 0v13.866a149.149 149.149 0 0 1 -95.864-40.013l9.657-9.685a6 6 0 0 0 -8.5-8.473l-9.611 9.642a150.049 150.049 0 0 1 -39.5-96.144h13.415a6 6 0 1 0 0-12z"/><path d="m245.749 501c102.675 0 186.207-83.767 186.207-186.729a186.946 186.946 0 0 0 -142.887-181.617v-13.678a23.047 23.047 0 0 0 -23-23.046h-4.839v-6.261c24.145-12.265 64.072 19.5 84.335 46.021a71.531 71.531 0 0 0 56.122 27.456c11.261 0 21.911-2.822 30.464-8.239 23.5-14.88 26.752-44.621 8.711-79.556-18.618-36.057-43.749-57.2-74.692-62.835-26.055-4.747-56.536 1.927-88.151 19.3a238.627 238.627 0 0 0 -38.469 26.339 19.276 19.276 0 0 0 -16.789 19.1v18.675h-6.443a23.047 23.047 0 0 0 -23 23.046v16.112a186.986 186.986 0 0 0 -133.776 179.183c0 102.962 83.532 186.729 186.207 186.729zm118.27-476.678c27.092 4.936 49.358 23.957 66.181 56.534 15.106 29.252 13.476 52.548-4.47 63.914-18.526 11.733-52.091 7.9-70.63-16.366-20.7-27.087-62.293-61.856-93.9-51.692a19.236 19.236 0 0 0 -7.4-14.639c18.206-14.064 65.388-45.922 110.219-37.751zm-129.258 52.932a7.235 7.235 0 1 1 14.469 0v18.676h-14.469zm-29.44 41.722a11.034 11.034 0 0 1 11-11.046h49.754a11.034 11.034 0 0 1 11 11.046v11.224a186.068 186.068 0 0 0 -71.748 1.79zm40.428 20.565c96.058 0 174.207 78.383 174.207 174.73s-78.149 174.729-174.207 174.729-174.207-78.383-174.207-174.729 78.149-174.73 174.207-174.73z"/></g></svg>